# xmcd
#
# Track frame offsets:
#	150
#	16063
#	33526
#	47547
#	63486
#	85672
#	106865
#	129392
#	144226
#	157264
#
# Disc length: 2302 seconds
#
# Revision: 0
# Processed by: cddbd v1.4PL0 Copyright (c) Steve Scherf et al.
# Submitted via: audiograbber 1.80
#
DISCID=7808fc0a
DTITLE=Музыка "Heineken" - Volume 1
DYEAR=1900
DGENRE=
TTITLE0=Blues cousins - Трек  1
TTITLE1=Blues cousins - Трек  2
TTITLE2=Кукуруза - Трек  3
TTITLE3=Кукуруза - Трек  4
TTITLE4=Blast - Трек  5
TTITLE5=Blast - Трек  6
TTITLE6=Old men's blues band - Трек  7
TTITLE7=Old men's blues band - Трек  8
TTITLE8=The Skyrockets - Трек  9
TTITLE9=The Skyrockets - Трек 10
EXTD=
EXTT0=
EXTT1=
EXTT2=
EXTT3=
EXTT4=
EXTT5=
EXTT6=
EXTT7=
EXTT8=
EXTT9=
PLAYORDER=
